# xmcd CD database file
# Copyright (C) 1993-1996 Ti Kan
#
# Track frame offsets:
# 150
# 11188
# 23578
# 37888
# 49528
# 63495
# 75653
# 87748
# 100603
# 113845
# 126978
#
# Disc length: 1845 seconds
#
# Revision: 0
# Processed by: cddbd v1.4b41PL1 Copyright (c) Steve Scherf et al.
# Submitted via: inCDius 1.1b5
#
DISCID=8407330b
DTITLE=Conway Twitty - Conway Twitty's Greatest Hits Vol. 1
DYEAR=1900
DGENRE=
TTITLE0=Hello Darlin'
TTITLE1=I Wonder What She'll Think About Leaving
TTITLE2=Fifteen Years Ago
TTITLE3=Darling, You Know I Wouldn't Lie
TTITLE4=That's When She Started To Stop Loving You
TTITLE5=To See My Angel Cry
TTITLE6=I Can't See Me Without You
TTITLE7=Next In Line
TTITLE8=How Much More Can She Stand
TTITLE9=The Image Of Me
TTITLE10=I Love You More Today
EXTD=
EXTT0=
EXTT1=
EXTT2=
EXTT3=
EXTT4=
EXTT5=
EXTT6=
EXTT7=
EXTT8=
EXTT9=
EXTT10=
PLAYORDER=
